<svg width="53" height="55" viewBox="0 0 53 55" fill="none" xmlns="http://www.w3.org/2000/svg">
<g clip-path="url(#clip0_2373_78)">
<path d="M44.8667 10.1059C41.4887 8.53857 37.8663 7.38385 34.0788 6.7225C34.0098 6.70974 33.9409 6.74163 33.9054 6.80543C33.4395 7.64328 32.9234 8.73633 32.5621 9.59546C28.4884 8.97878 24.4356 8.97878 20.4455 9.59546C20.084 8.71723 19.5492 7.64328 19.0813 6.80543C19.0457 6.74376 18.9768 6.71187 18.9079 6.7225C15.1225 7.38174 11.5 8.53646 8.1199 10.1059C8.09064 10.1186 8.06555 10.1399 8.04891 10.1675C1.17791 20.5473 -0.704348 30.6719 0.219023 40.671C0.223201 40.7199 0.250358 40.7667 0.287962 40.7965C4.82125 44.1628 9.21252 46.2065 13.5222 47.5611C13.5912 47.5823 13.6643 47.5568 13.7082 47.4994C14.7277 46.0917 15.6364 44.6073 16.4156 43.0464C16.4616 42.9549 16.4177 42.8465 16.3237 42.8103C14.8822 42.2574 13.5097 41.5833 12.1894 40.8178C12.085 40.7561 12.0766 40.6051 12.1727 40.5327C12.4505 40.3222 12.7284 40.1032 12.9937 39.882C13.0417 39.8416 13.1086 39.8331 13.165 39.8586C21.8388 43.863 31.2292 43.863 39.8007 39.8586C39.8571 39.831 39.924 39.8395 39.9741 39.8799C40.2395 40.1011 40.5173 40.3222 40.7972 40.5327C40.8933 40.6051 40.887 40.7561 40.7826 40.8178C39.4623 41.5982 38.0898 42.2574 36.6462 42.8082C36.5522 42.8444 36.5104 42.9549 36.5564 43.0464C37.3523 44.6051 38.2611 46.0895 39.2617 47.4973C39.3035 47.5568 39.3787 47.5823 39.4477 47.5611C43.7783 46.2065 48.1695 44.1628 52.7028 40.7965C52.7425 40.7667 52.7676 40.7221 52.7718 40.6731C53.8769 29.1131 50.9208 19.0715 44.9356 10.1696C44.921 10.1399 44.896 10.1186 44.8667 10.1059ZM17.7109 34.5826C15.0995 34.5826 12.9478 32.1584 12.9478 29.1812C12.9478 26.2039 15.0577 23.7797 17.7109 23.7797C20.3848 23.7797 22.5157 26.2252 22.4739 29.1812C22.4739 32.1584 20.3639 34.5826 17.7109 34.5826ZM35.3217 34.5826C32.7104 34.5826 30.5587 32.1584 30.5587 29.1812C30.5587 26.2039 32.6686 23.7797 35.3217 23.7797C37.9958 23.7797 40.1266 26.2252 40.0849 29.1812C40.0849 32.1584 37.9958 34.5826 35.3217 34.5826Z" fill="#5865F2"/>
</g>
<defs>
<clipPath id="clip0_2373_78">
<rect width="53" height="53.5918" fill="white" transform="translate(0 0.82666)"/>
</clipPath>
</defs>
</svg>
