<svg width="48" height="48" viewBox="0 0 48 48" fill="none" xmlns="http://www.w3.org/2000/svg">
<g clip-path="url(#clip0_2361_993)">
<path fill-rule="evenodd" clip-rule="evenodd" d="M23.6958 0C10.5927 0 0 10.8167 0 24.1983C0 34.895 6.78708 43.9495 16.2026 47.1542C17.3797 47.3951 17.8109 46.6335 17.8109 45.9929C17.8109 45.4319 17.7721 43.509 17.7721 41.5055C11.1805 42.948 9.80787 38.6209 9.80787 38.6209C8.74856 35.8164 7.17899 35.0956 7.17899 35.0956C5.02156 33.6132 7.33614 33.6132 7.33614 33.6132C9.7293 33.7735 10.985 36.0971 10.985 36.0971C13.1032 39.7827 16.5164 38.7413 17.8895 38.1002C18.0855 36.5377 18.7136 35.456 19.3805 34.8552C14.1232 34.2942 8.59189 32.211 8.59189 22.9161C8.59189 20.2719 9.53286 18.1086 11.0239 16.4261C10.7886 15.8253 9.96454 13.3409 11.2596 10.0157C11.2596 10.0157 13.2603 9.3746 17.7716 12.4996C19.7031 11.9699 21.695 11.7005 23.6958 11.6982C25.6966 11.6982 27.7362 11.979 29.6196 12.4996C34.1314 9.3746 36.1321 10.0157 36.1321 10.0157C37.4272 13.3409 36.6026 15.8253 36.3674 16.4261C37.8976 18.1086 38.7998 20.2719 38.7998 22.9161C38.7998 32.211 33.2685 34.2539 27.9719 34.8552C28.8353 35.6163 29.5803 37.0583 29.5803 39.3421C29.5803 42.5871 29.5415 45.1915 29.5415 45.9924C29.5415 46.6335 29.9732 47.3951 31.1499 47.1547C40.5653 43.9491 47.3524 34.895 47.3524 24.1983C47.3912 10.8167 36.7598 0 23.6958 0Z" fill="#24292F"/>
</g>
<defs>
<clipPath id="clip0_2361_993">
<rect width="47.3525" height="48" fill="white"/>
</clipPath>
</defs>
</svg>
