<svg width="37" height="36" viewBox="0 0 37 36" fill="none" xmlns="http://www.w3.org/2000/svg">
<path fill-rule="evenodd" clip-rule="evenodd" d="M18.5153 0C8.27682 0 0 8.11249 0 18.1487C0 26.1713 5.30324 32.9622 12.6602 35.3657C13.5801 35.5464 13.917 34.9752 13.917 34.4947C13.917 34.0739 13.8867 32.6318 13.8867 31.1291C8.73616 32.211 7.66361 28.9657 7.66361 28.9657C6.83589 26.8623 5.60947 26.3217 5.60947 26.3217C3.92371 25.2099 5.73226 25.2099 5.73226 25.2099C7.60221 25.3301 8.58343 27.0729 8.58343 27.0729C10.2385 29.837 12.9055 29.056 13.9784 28.5751C14.1315 27.4033 14.6223 26.592 15.1434 26.1414C11.0355 25.7207 6.71348 24.1583 6.71348 17.1871C6.71348 15.2039 7.44872 13.5814 8.61375 12.3196C8.42993 11.8689 7.78603 10.0057 8.79794 7.5118C8.79794 7.5118 10.3613 7.03095 13.8863 9.37472C15.3955 8.97745 16.9519 8.77536 18.5153 8.77366C20.0787 8.77366 21.6723 8.98422 23.1439 9.37472C26.6693 7.03095 28.2327 7.5118 28.2327 7.5118C29.2446 10.0057 28.6003 11.8689 28.4165 12.3196C29.6122 13.5814 30.3171 15.2039 30.3171 17.1871C30.3171 24.1583 25.9951 25.6904 21.8565 26.1414C22.5311 26.7122 23.1132 27.7938 23.1132 29.5066C23.1132 31.9404 23.0829 33.8936 23.0829 34.4943C23.0829 34.9752 23.4202 35.5464 24.3397 35.366C31.6967 32.9618 36.9999 26.1713 36.9999 18.1487C37.0302 8.11249 28.7231 0 18.5153 0Z" fill="white"/>
</svg>
