<svg width="48" height="48" viewBox="0 0 48 48" fill="none" xmlns="http://www.w3.org/2000/svg">
<g clip-path="url(#clip0_2361_991)">
<path d="M44.2185 -1.90735e-06H3.85705C2.92997 -1.90735e-06 2.04087 0.373313 1.38533 1.03782C0.72979 1.70232 0.361511 2.60358 0.361511 3.54333V44.4567C0.361511 45.3964 0.72979 46.2977 1.38533 46.9622C2.04087 47.6267 2.92997 48 3.85705 48H44.2185C45.1456 48 46.0347 47.6267 46.6902 46.9622C47.3458 46.2977 47.714 45.3964 47.714 44.4567V3.54333C47.714 2.60358 47.3458 1.70232 46.6902 1.03782C46.0347 0.373313 45.1456 -1.90735e-06 44.2185 -1.90735e-06ZM14.4752 40.89H7.35587V17.9667H14.4752V40.89ZM10.9106 14.79C10.103 14.7854 9.31492 14.5384 8.6457 14.0802C7.97649 13.622 7.45618 12.9731 7.15044 12.2154C6.84469 11.4577 6.76722 10.6252 6.92779 9.82291C7.08836 9.02063 7.47978 8.28455 8.05266 7.70756C8.62553 7.13057 9.35418 6.73853 10.1466 6.58092C10.9391 6.42331 11.7599 6.50719 12.5054 6.82197C13.2508 7.13675 13.8876 7.66833 14.3354 8.34962C14.7831 9.03091 15.0217 9.83138 15.0211 10.65C15.0287 11.1981 14.9274 11.7421 14.7232 12.2496C14.519 12.7571 14.216 13.2178 13.8325 13.6041C13.4489 13.9905 12.9925 14.2946 12.4905 14.4983C11.9885 14.702 11.4512 14.8012 10.9106 14.79ZM40.7164 40.91H33.6003V28.3867C33.6003 24.6933 32.0515 23.5533 30.0522 23.5533C27.9411 23.5533 25.8694 25.1667 25.8694 28.48V40.91H18.7501V17.9833H25.5965V21.16H25.6885C26.3758 19.75 28.7829 17.34 32.456 17.34C36.4283 17.34 40.7197 19.73 40.7197 26.73L40.7164 40.91Z" fill="#0A66C2"/>
</g>
<defs>
<clipPath id="clip0_2361_991">
<rect width="47.3525" height="48" fill="white" transform="translate(0.361511)"/>
</clipPath>
</defs>
</svg>
