<svg width="56" height="52" viewBox="0 0 56 52" fill="none" xmlns="http://www.w3.org/2000/svg">
<path d="M18.6667 39H37.3333V34.6667H18.6667V39ZM18.6667 30.3333H37.3333V26H18.6667V30.3333ZM14 47.6667C12.7167 47.6667 11.6181 47.2424 10.7042 46.3937C9.79028 45.5451 9.33333 44.525 9.33333 43.3333V8.66667C9.33333 7.475 9.79028 6.45486 10.7042 5.60625C11.6181 4.75764 12.7167 4.33333 14 4.33333H32.6667L46.6667 17.3333V43.3333C46.6667 44.525 46.2097 45.5451 45.2958 46.3937C44.3819 47.2424 43.2833 47.6667 42 47.6667H14ZM30.3333 19.5V8.66667H14V43.3333H42V19.5H30.3333Z" fill="#4B5563"/>
</svg>
